#!OML:ASF I:\Actors\actors\Patient Classification 2\Patient 1\Session 1\actor1.ASF
:FULLY-SPECIFIED
:DEGREES
1184
root -0.430585 18.6183 5.96298 -2.24359 -2.31796 -1.43862
lowerback 9.31196 1.118 0.0747732
upperback 4.00284 1.50041 0.767404
thorax -1.0891 0.742805 0.59864
lowerneck -17.2097 -1.01388 0.424484
upperneck 12.7308 -1.67217 1.18846
head 6.70936 -0.676836 0.137955
rclavicle -3.73964e-015 -6.26172e-015
rhumerus -12.7419 40.3682 -94.2066
rradius 66.9398
rwrist -27.4142
rhand 1.25747 -36.7234
rfingers 7.12502
rthumb 26.7943 -64.8455
lclavicle -3.73964e-015 -6.26172e-015
lhumerus -46.025 -32.004 104.795
lradius 115.697
lwrist 41.5668
lhand -16.8996 339.991
lfingers 7.12502
lthumb 9.33222 9.76484
rfemur 11.5128 4.61985 15.2775
rtibia 3.18055e-014
rfoot -18.588 -14.2256
rtoes -11.7975
lfemur -2.38817 -0.791077 -13.6708
ltibia 24.1806
lfoot -20.6719 7.49225
ltoes -56.5918
1185
root -0.410572 18.6238 5.98115 -1.80541 -3.99983 -1.28583
lowerback 8.60683 1.75099 -0.328158
upperback 3.69962 2.30689 0.75294
thorax -1.03822 1.14212 0.744332
lowerneck -17.0836 -1.09249 0.249619
upperneck 12.6153 -1.76058 1.35551
head 6.65443 -0.714714 0.211774
rclavicle -1.28713e-014 -1.00386e-014
rhumerus -13.8568 39.5221 -94.2331
rradius 65.4294
rwrist -27.2321
rhand -0.347005 -37.0456
rfingers 7.12502
rthumb 25.258 -65.3937
lclavicle -1.28713e-014 -1.00386e-014
lhumerus -46.6119 -30.6489 104.054
lradius 114.112
lwrist 40.7691
lhand -16.982 340.196
lfingers 7.12502
lthumb 9.25273 9.97295
rfemur 10.7256 6.26676 15.0463
rtibia 3.18055e-015
rfoot -18.4196 -14.4155
rtoes -12.2395
lfemur -2.4158 0.191694 -13.9631
ltibia 24.0714
lfoot -21.0694 8.06553
ltoes -56.3845
1186
root -0.39732 18.6266 5.9982 -1.49848 -5.44242 -1.19209
lowerback 8.05523 2.31814 -0.721177
upperback 3.43999 3.03283 0.765281
thorax -1.03455 1.50211 0.924322
lowerneck -16.9693 -1.15606 0.208036
upperneck 12.4487 -1.83779 1.38564
head 6.58261 -0.75325 0.221096
rclavicle 2.38479e-014 -1.02871e-014
rhumerus -14.8656 39.0892 -94.1209
rradius 63.87
rwrist -27.49
rhand -1.79809 -37.3441
rfingers 7.12502
rthumb 23.867 -65.8812
lclavicle 2.38479e-014 -1.02871e-014
lhumerus -47.0947 -29.3666 103.366
lradius 112.314
lwrist 40.0108
lhand -17.0251 340.152
lfingers 7.12502
lthumb 9.21113 9.93051
rfemur 10.1381 7.68061 14.8818
rtibia -3.65764e-014
rfoot -18.2869 -14.559
rtoes -12.6064
lfemur -2.36928 1.12382 -14.1566
ltibia 23.9923
lfoot -21.4249 8.44142
ltoes -56.1702
1187
root -0.348986 18.6103 6.06114 -2.49129 -0.744983 -1.42703
lowerback 8.21616 0.723971 0.213235
upperback 3.64068 0.98902 0.811499
thorax -0.853725 0.490028 0.62887
lowerneck -16.9004 -1.21214 0.144721
upperneck 12.3702 -1.88976 1.34296
head 6.54611 -0.786158 0.212729
rclavicle 2.70968e-014 5.46658e-016
rhumerus -15.8009 39.0955 -93.8962
rradius 62.317
rwrist -28.1015
rhand -4.44818 -37.3578
rfingers 7.12502
rthumb 21.3235 -66.2046
lclavicle 2.70968e-014 5.46658e-016
lhumerus -47.5017 -27.9221 102.777
lradius 110.302
lwrist 39.1327
lhand -16.8888 340.025
lfingers 7.12502
lthumb 9.34261 9.7983
rfemur 12.5041 3.12263 14.9927
rtibia -3.49861e-014
rfoot -19.2999 -13.6923
rtoes -10.8917
lfemur -1.95391 -1.58312 -13.8889
ltibia 23.953
lfoot -20.6567 6.73258
ltoes -56.4636
1188
root -0.317633 18.6123 6.07161 -2.39384 -2.06424 -1.23935
lowerback 8.01295 1.24595 0.0733819
upperback 3.43218 1.67043 0.745848
thorax -0.965149 0.829452 0.581389
lowerneck -16.8498 -1.27952 0.0764848
upperneck 12.3284 -1.96279 1.33802
head 6.52521 -0.825713 0.214975
rclavicle 2.30342e-014 6.80837e-015
rhumerus -16.837 38.4697 -93.7913
rradius 60.8886
rwrist -27.9947
rhand -7.35518 -36.8974
rfingers 7.12502
rthumb 18.5292 -66.0349
lclavicle 2.30342e-014 6.80837e-015
lhumerus -47.8534 -26.4483 102.284
lradius 108.172
lwrist 38.1796
lhand -16.848 339.928
lfingers 7.12502
lthumb 9.38205 9.69947
rfemur 12.1081 4.44584 14.7205
rtibia -2.06736e-014
rfoot -19.1127 -13.9131
rtoes -12.0701
lfemur -1.74124 -1.04743 -14.2928
ltibia 23.9103
lfoot -21.0951 7.42657
ltoes -56.3972
1189
root -0.300636 18.6102 6.09446 -2.45656 -2.42311 -1.16887
lowerback 7.77954 1.45238 -0.083495
upperback 3.3183 1.93322 0.735974
thorax -0.961198 0.959734 0.640546
lowerneck -16.8316 -1.34414 0.0346453
upperneck 12.2721 -2.05478 1.43558
head 6.50621 -0.864105 0.243865
rclavicle -8.42971e-015 1.19768e-014
rhumerus -17.8993 37.3374 -93.7799
rradius 59.5151
rwrist -27.1862
rhand -8.45121 -36.2485
rfingers 7.12502
rthumb 17.4746 -65.4831
lclavicle -8.42971e-015 1.19768e-014
lhumerus -48.2214 -25.0698 101.829
lradius 106.098
lwrist 37.4478
lhand -17.1563 340.057
lfingers 7.12502
lthumb 9.08457 9.84125
rfemur 12.1865 4.8198 14.6152
rtibia 6.36111e-015
rfoot -19.1471 -13.9298
rtoes -12.8137
lfemur -1.48902 -0.948771 -14.4516
ltibia 23.8851
lfoot -21.3695 7.60003
ltoes -56.3521
1190
root -0.28336 18.6073 6.11627 -2.50825 -2.61221 -1.0981
lowerback 7.5462 1.56872 -0.214977
upperback 3.2034 2.07891 0.721763
thorax -0.956641 1.03193 0.691829
lowerneck -16.8496 -1.39515 -0.0613834
upperneck 12.2679 -2.12727 1.60012
head 6.5115 -0.889224 0.304723
rclavicle -3.19298e-015 7.00716e-015
rhumerus -18.9787 36.3388 -93.8265
rradius 58.1618
rwrist -26.3429
rhand -8.66401 -35.9873
rfingers 7.12502
rthumb 17.2698 -65.24
lclavicle -3.19298e-015 7.00716e-015
lhumerus -48.6144 -23.6575 101.374
lradius 104.091
lwrist 36.9095
lhand -17.5808 340.438
lfingers 7.12502
lthumb 8.67487 10.2393
rfemur 12.2786 5.02612 14.4895
rtibia -1.11319e-014
rfoot -19.2038 -13.8994
rtoes -13.0564
lfemur -1.26093 -0.935182 -14.6157
ltibia 23.7993
lfoot -21.5646 7.71513
ltoes -56.2606
1191
root -0.26725 18.6046 6.13911 -2.50916 -2.62063 -1.0404
lowerback 7.19755 1.58952 -0.333053
upperback 3.10088 2.09958 0.723302
thorax -0.874056 1.04171 0.766119
lowerneck -16.8617 -1.40291 -0.108554
upperneck 12.2728 -2.12634 1.59807
head 6.5155 -0.891127 0.311701
rclavicle -3.9701e-014 1.16786e-014
rhumerus -20.062 35.5038 -93.8703
rradius 56.9057
rwrist -25.6974
rhand -9.03405 -35.9871
rfingers 7.12502
rthumb 16.9137 -65.2706
lclavicle -3.9701e-014 1.16786e-014
lhumerus -48.9268 -22.1285 100.91
lradius 101.977
lwrist 36.3291
lhand -17.9139 340.646
lfingers 7.12502
lthumb 8.35338 10.4605
rfemur 12.3574 5.04817 14.366
rtibia 1.74931e-014
rfoot -19.2834 -13.8179
rtoes -12.9472
lfemur -1.13625 -0.92082 -14.7391
ltibia 23.7294
lfoot -21.661 7.66866
ltoes -56.1606
1192
root -0.257749 18.5979 6.16725 -2.72681 -1.93488 -1.04629
lowerback 6.95473 1.37055 -0.439175
upperback 3.09304 1.80324 0.759356
thorax -0.747261 0.892699 0.891955
lowerneck -16.8141 -1.38296 -0.0895992
upperneck 12.2282 -2.09753 1.56456
head 6.49232 -0.879905 0.301262
rclavicle 1.36851e-014 -5.86415e-015
rhumerus -21.0873 34.7282 -93.8681
rradius 55.7642
rwrist -25.3147
rhand -9.17542 -36.1039
rfingers 7.12502
rthumb 16.7776 -65.399
lclavicle 1.36851e-014 -5.86415e-015
lhumerus -49.1521 -20.6058 100.441
lradius 99.7604
lwrist 35.6912
lhand -18.3453 340.678
lfingers 7.12502
lthumb 7.93708 10.5087
rfemur 12.8783 4.39855 14.3388
rtibia -1.90833e-014
rfoot -19.5429 -13.595
rtoes -12.3593
lfemur -0.891912 -1.15779 -14.7137
ltibia 23.6765
lfoot -21.5777 7.23796
ltoes -56.204
1193
root -0.23417 18.5972 6.1791 -2.71557 -2.15623 -0.910818
lowerback 6.78456 1.45703 -0.472096
upperback 2.94937 1.9159 0.666536
thorax -0.800996 0.94988 0.808682
lowerneck -16.7377 -1.39807 -0.191539
upperneck 12.2284 -2.13333 1.81318
head 6.48421 -0.880846 0.394479
rclavicle -1.39087e-014 -5.51627e-015
rhumerus -22.1448 33.875 -93.9303
rradius 54.7536
rwrist -25.1329
rhand -9.2316 -36.3748
rfingers 7.12502
rthumb 16.7235 -65.6744
lclavicle -1.39087e-014 -5.51627e-015
lhumerus -49.4151 -19.2173 99.9856
lradius 97.5496
lwrist 35.0642
lhand -18.8917 340.673
lfingers 7.12502
lthumb 7.40965 10.5229
rfemur 12.8214 4.63769 14.104
rtibia 4.6118e-014
rfoot -19.4763 -13.6701
rtoes -12.8557
lfemur -0.806329 -1.23618 -15.0106
ltibia 23.6354
lfoot -21.7694 7.48943
ltoes -56.1198
